<svg xmlns="http://www.w3.org/2000/svg" viewBox="0 0 1200 630" width="1200" height="630">
  <defs>
    <!-- Rich background gradient -->
    <radialGradient id="bg" cx="0.2" cy="0.1" r="1.2">
      <stop offset="0" stop-color="#1e293b"/>
      <stop offset="0.5" stop-color="#0f172a"/>
      <stop offset="1" stop-color="#020617"/>
    </radialGradient>

    <!-- Brand accent gradient -->
    <linearGradient id="accent" x1="0" y1="0" x2="1" y2="0">
      <stop offset="0" stop-color="#22d3ee"/>
      <stop offset="0.5" stop-color="#38bdf8"/>
      <stop offset="1" stop-color="#a78bfa"/>
    </linearGradient>

    <!-- Title gradient -->
    <linearGradient id="titleGrad" x1="0" y1="0" x2="1" y2="0.3">
      <stop offset="0" stop-color="#ffffff"/>
      <stop offset="1" stop-color="#cbd5e1"/>
    </linearGradient>

    <!-- Card gradient -->
    <linearGradient id="card" x1="0" y1="0" x2="0" y2="1">
      <stop offset="0" stop-color="#1e293b"/>
      <stop offset="1" stop-color="#0f172a"/>
    </linearGradient>

    <!-- Badge gradients -->
    <linearGradient id="badgeRed" x1="0" y1="0" x2="1" y2="1">
      <stop offset="0" stop-color="#f87171"/>
      <stop offset="1" stop-color="#dc2626"/>
    </linearGradient>
    <linearGradient id="badgeOrange" x1="0" y1="0" x2="1" y2="1">
      <stop offset="0" stop-color="#fbbf24"/>
      <stop offset="1" stop-color="#f97316"/>
    </linearGradient>
    <linearGradient id="badgeGreen" x1="0" y1="0" x2="1" y2="1">
      <stop offset="0" stop-color="#34d399"/>
      <stop offset="1" stop-color="#10b981"/>
    </linearGradient>
    <linearGradient id="badgePurple" x1="0" y1="0" x2="1" y2="1">
      <stop offset="0" stop-color="#c084fc"/>
      <stop offset="1" stop-color="#7c3aed"/>
    </linearGradient>
    <linearGradient id="badgeSlate" x1="0" y1="0" x2="1" y2="1">
      <stop offset="0" stop-color="#64748b"/>
      <stop offset="1" stop-color="#334155"/>
    </linearGradient>
    <linearGradient id="badgeBlue" x1="0" y1="0" x2="1" y2="1">
      <stop offset="0" stop-color="#60a5fa"/>
      <stop offset="1" stop-color="#2563eb"/>
    </linearGradient>
    <linearGradient id="badgeTeal" x1="0" y1="0" x2="1" y2="1">
      <stop offset="0" stop-color="#5eead4"/>
      <stop offset="1" stop-color="#0d9488"/>
    </linearGradient>

    <!-- Drop shadow filter -->
    <filter id="shadow" x="-20%" y="-20%" width="140%" height="140%">
      <feDropShadow dx="0" dy="8" stdDeviation="10" flood-color="#000" flood-opacity="0.55"/>
    </filter>

    <!-- Glow filter -->
    <filter id="glow" x="-50%" y="-50%" width="200%" height="200%">
      <feGaussianBlur stdDeviation="6" result="blur"/>
      <feMerge>
        <feMergeNode in="blur"/>
        <feMergeNode in="SourceGraphic"/>
      </feMerge>
    </filter>

    <!-- Subtle grid pattern -->
    <pattern id="grid" x="0" y="0" width="40" height="40" patternUnits="userSpaceOnUse">
      <path d="M 40 0 L 0 0 0 40" fill="none" stroke="#1e293b" stroke-width="1" opacity="0.5"/>
    </pattern>
  </defs>

  <!-- Background -->
  <rect width="1200" height="630" fill="url(#bg)"/>
  <rect width="1200" height="630" fill="url(#grid)"/>

  <!-- Decorative blurred orbs -->
  <circle cx="1050" cy="100" r="180" fill="#38bdf8" opacity="0.12" filter="url(#glow)"/>
  <circle cx="150" cy="550" r="160" fill="#a78bfa" opacity="0.12" filter="url(#glow)"/>

  <!-- Top accent line -->
  <rect x="0" y="0" width="1200" height="6" fill="url(#accent)"/>

  <!-- Header pill: category -->
  <g transform="translate(70, 70)">
    <rect x="0" y="0" width="352" height="44" rx="22" fill="#0f172a" stroke="#38bdf8" stroke-width="1.5" opacity="0.95"/>
    <circle cx="26" cy="22" r="5" fill="#22d3ee">
      <animate attributeName="opacity" values="1;0.4;1" dur="2s" repeatCount="indefinite"/>
    </circle>
    <text x="50" y="22" dominant-baseline="central" font-family="system-ui, -apple-system, Segoe UI, sans-serif" font-size="15" font-weight="600" fill="#22d3ee" letter-spacing="1.8">
      INTERACTIVE SIMULATOR · FREE
    </text>
  </g>

  <!-- Main Title -->
  <text x="70" y="190" font-family="system-ui, -apple-system, Segoe UI, sans-serif" font-size="78" font-weight="800" fill="url(#titleGrad)" letter-spacing="-1.5">
    EDA Simulator
  </text>
  <text x="70" y="260" font-family="system-ui, -apple-system, Segoe UI, sans-serif" font-size="44" font-weight="700" fill="url(#accent)" letter-spacing="-0.5">
    Event-Driven Architecture patterns
  </text>

  <!-- Subtitle -->
  <text x="70" y="310" font-family="system-ui, -apple-system, Segoe UI, sans-serif" font-size="22" font-weight="400" fill="#94a3b8">
    Delivery guarantees, idempotency, DLQ, Outbox and Inbox. Live, in your browser.
  </text>

  <!-- Scenario badges - Row 1: Delivery guarantees -->
  <g transform="translate(70, 335)" filter="url(#shadow)">
    <!-- At-most-once -->
    <g>
      <rect x="0" y="0" width="190" height="42" rx="21" fill="url(#badgeRed)"/>
      <text x="95" y="28" text-anchor="middle" font-family="system-ui, sans-serif" font-size="16" font-weight="700" fill="#fff">At-most-once</text>
    </g>
    <!-- At-least-once -->
    <g transform="translate(202, 0)">
      <rect x="0" y="0" width="190" height="42" rx="21" fill="url(#badgeOrange)"/>
      <text x="95" y="28" text-anchor="middle" font-family="system-ui, sans-serif" font-size="16" font-weight="700" fill="#fff">At-least-once</text>
    </g>
    <!-- Exactly-once -->
    <g transform="translate(404, 0)">
      <rect x="0" y="0" width="190" height="42" rx="21" fill="url(#badgeGreen)"/>
      <text x="95" y="28" text-anchor="middle" font-family="system-ui, sans-serif" font-size="16" font-weight="700" fill="#fff">Exactly-once</text>
    </g>
  </g>

  <!-- Scenario badges - Row 2: Reliability patterns -->
  <g transform="translate(70, 387)" filter="url(#shadow)">
    <!-- Idempotency -->
    <g>
      <rect x="0" y="0" width="170" height="42" rx="21" fill="url(#badgePurple)"/>
      <text x="85" y="28" text-anchor="middle" font-family="system-ui, sans-serif" font-size="16" font-weight="700" fill="#fff">Idempotency</text>
    </g>
    <!-- DLQ -->
    <g transform="translate(182, 0)">
      <rect x="0" y="0" width="80" height="42" rx="21" fill="url(#badgeSlate)"/>
      <text x="40" y="28" text-anchor="middle" font-family="system-ui, sans-serif" font-size="16" font-weight="700" fill="#fff">DLQ</text>
    </g>
    <!-- Outbox -->
    <g transform="translate(274, 0)">
      <rect x="0" y="0" width="130" height="42" rx="21" fill="url(#badgeBlue)"/>
      <text x="65" y="28" text-anchor="middle" font-family="system-ui, sans-serif" font-size="16" font-weight="700" fill="#fff">Outbox</text>
    </g>
    <!-- Inbox -->
    <g transform="translate(416, 0)">
      <rect x="0" y="0" width="120" height="42" rx="21" fill="url(#badgeTeal)"/>
      <text x="60" y="28" text-anchor="middle" font-family="system-ui, sans-serif" font-size="16" font-weight="700" fill="#fff">Inbox</text>
    </g>
  </g>

  <!-- Flow diagram -->
  <g transform="translate(36, 450)" filter="url(#shadow)">
    <!-- Producer -->
    <g>
      <rect x="0" y="0" width="240" height="92" rx="14" fill="url(#card)" stroke="url(#accent)" stroke-width="2.5"/>
      <!-- Producer icon: arrow out -->
      <g transform="translate(20, 26)">
        <circle cx="20" cy="20" r="18" fill="none" stroke="#22d3ee" stroke-width="2.5"/>
        <path d="M 12 20 L 28 20 M 22 14 L 28 20 L 22 26" stroke="#22d3ee" stroke-width="2.5" fill="none" stroke-linecap="round" stroke-linejoin="round"/>
      </g>
      <text x="155" y="42" text-anchor="middle" font-family="system-ui, sans-serif" font-size="20" font-weight="700" fill="#e2e8f0">Producer</text>
      <text x="155" y="68" text-anchor="middle" font-family="system-ui, sans-serif" font-size="13" fill="#94a3b8">publishes events</text>
    </g>

    <!-- Animated message dot 1 -->
    <circle cx="262" cy="46" r="5" fill="#22d3ee" filter="url(#glow)"/>
    <line x1="244" y1="46" x2="282" y2="46" stroke="url(#accent)" stroke-width="3" stroke-linecap="round"/>
    <polygon points="278,40 290,46 278,52" fill="#a78bfa"/>

    <!-- Broker -->
    <g transform="translate(296, 0)">
      <rect x="0" y="0" width="240" height="92" rx="14" fill="url(#card)" stroke="url(#accent)" stroke-width="2.5"/>
      <!-- Broker icon: stacked layers -->
      <g transform="translate(22, 24)">
        <rect x="0" y="0" width="40" height="8" rx="2" fill="none" stroke="#38bdf8" stroke-width="2"/>
        <rect x="0" y="14" width="40" height="8" rx="2" fill="none" stroke="#38bdf8" stroke-width="2"/>
        <rect x="0" y="28" width="40" height="8" rx="2" fill="none" stroke="#38bdf8" stroke-width="2"/>
      </g>
      <text x="155" y="42" text-anchor="middle" font-family="system-ui, sans-serif" font-size="20" font-weight="700" fill="#e2e8f0">Broker</text>
      <text x="155" y="68" text-anchor="middle" font-family="system-ui, sans-serif" font-size="13" fill="#94a3b8">queue / topic</text>
    </g>

    <line x1="540" y1="46" x2="578" y2="46" stroke="url(#accent)" stroke-width="3" stroke-linecap="round"/>
    <polygon points="574,40 586,46 574,52" fill="#a78bfa"/>

    <!-- Consumer -->
    <g transform="translate(592, 0)">
      <rect x="0" y="0" width="240" height="92" rx="14" fill="url(#card)" stroke="url(#accent)" stroke-width="2.5"/>
      <!-- Consumer icon: gear/check -->
      <g transform="translate(22, 24)">
        <circle cx="20" cy="20" r="18" fill="none" stroke="#a78bfa" stroke-width="2.5"/>
        <path d="M 12 20 L 18 26 L 28 14" stroke="#a78bfa" stroke-width="2.5" fill="none" stroke-linecap="round" stroke-linejoin="round"/>
      </g>
      <text x="155" y="42" text-anchor="middle" font-family="system-ui, sans-serif" font-size="20" font-weight="700" fill="#e2e8f0">Consumer</text>
      <text x="155" y="68" text-anchor="middle" font-family="system-ui, sans-serif" font-size="13" fill="#94a3b8">ack / retry / DLQ</text>
    </g>

    <line x1="836" y1="46" x2="874" y2="46" stroke="url(#accent)" stroke-width="3" stroke-linecap="round"/>
    <polygon points="870,40 882,46 870,52" fill="#a78bfa"/>

    <!-- Database -->
    <g transform="translate(888, 0)">
      <rect x="0" y="0" width="240" height="92" rx="14" fill="url(#card)" stroke="url(#accent)" stroke-width="2.5"/>
      <!-- DB icon: cylinder -->
      <g transform="translate(22, 22)">
        <ellipse cx="20" cy="6" rx="18" ry="5" fill="none" stroke="#34d399" stroke-width="2.5"/>
        <path d="M 2 6 L 2 32 A 18 5 0 0 0 38 32 L 38 6" fill="none" stroke="#34d399" stroke-width="2.5"/>
        <path d="M 2 19 A 18 5 0 0 0 38 19" fill="none" stroke="#34d399" stroke-width="2.5"/>
      </g>
      <text x="155" y="42" text-anchor="middle" font-family="system-ui, sans-serif" font-size="20" font-weight="700" fill="#e2e8f0">Database</text>
      <text x="155" y="68" text-anchor="middle" font-family="system-ui, sans-serif" font-size="13" fill="#94a3b8">expected = actual?</text>
    </g>
  </g>

  <!-- Footer -->
  <g transform="translate(70, 580)">
    <text x="0" y="22" font-family="system-ui, -apple-system, sans-serif" font-size="16" font-weight="500" fill="#64748b">
      Service Bus · Event Hubs · Event Grid · Storage Queue · RabbitMQ · Kafka
    </text>
  </g>

  <g transform="translate(1130, 602)">
    <text x="0" y="0" text-anchor="end" font-family="system-ui, -apple-system, sans-serif" font-size="20" font-weight="700" fill="url(#accent)">
      eda.cristianoprogramador.com
    </text>
  </g>
</svg>
